<?xml version="1.0" encoding="UTF-8" standalone="no"?>
<!-- Created with Inkscape (http://www.inkscape.org/) -->

<svg
   xmlns:dc="http://purl.org/dc/elements/1.1/"
   xmlns:cc="http://creativecommons.org/ns#"
   xmlns:rdf="http://www.w3.org/1999/02/22-rdf-syntax-ns#"
   xmlns:svg="http://www.w3.org/2000/svg"
   xmlns="http://www.w3.org/2000/svg"
   xmlns:sodipodi="http://sodipodi.sourceforge.net/DTD/sodipodi-0.dtd"
   xmlns:inkscape="http://www.inkscape.org/namespaces/inkscape"
   id="svg3384"
   version="1.1"
   inkscape:version="0.48.2 r9819"
   width="614.46692"
   height="419.01709"
   xml:space="preserve"
   sodipodi:docname="cloudbeers-logo.svg"
   inkscape:export-filename="/Users/stephenc/webinar/cloudbeers-logo.png"
   inkscape:export-xdpi="89.99633"
   inkscape:export-ydpi="89.99633"><metadata
     id="metadata3390"><rdf:RDF><cc:Work
         rdf:about=""><dc:format>image/svg+xml</dc:format><dc:type
           rdf:resource="http://purl.org/dc/dcmitype/StillImage" /><dc:title></dc:title></cc:Work></rdf:RDF></metadata><defs
     id="defs3388"><clipPath
       clipPathUnits="userSpaceOnUse"
       id="clipPath3398"><path
         d="M 0,792 612,792 612,0 0,0 0,792 z"
         id="path3400"
         inkscape:connector-curvature="0" /></clipPath></defs><sodipodi:namedview
     pagecolor="#ffffff"
     bordercolor="#666666"
     borderopacity="1"
     objecttolerance="10"
     gridtolerance="10"
     guidetolerance="10"
     inkscape:pageopacity="0"
     inkscape:pageshadow="2"
     inkscape:window-width="1164"
     inkscape:window-height="806"
     id="namedview3386"
     showgrid="false"
     inkscape:zoom="0.61313131"
     inkscape:cx="319.67038"
     inkscape:cy="-3.275368"
     inkscape:window-x="1280"
     inkscape:window-y="22"
     inkscape:window-maximized="0"
     inkscape:current-layer="g3392"
     fit-margin-top="20"
     fit-margin-left="20"
     fit-margin-right="20"
     fit-margin-bottom="20" /><g
     id="g3392"
     inkscape:groupmode="layer"
     inkscape:label="logo_blue"
     transform="matrix(1.25,0,0,-1.25,-62.829617,917.29246)"><g
       id="layer1"
       inkscape:label="Layer 1"
       transform="matrix(0.24006462,0,0,-0.24006462,209.24654,743.287)"
       style="fill:#20bdc1;fill-opacity:1"><path
         sodipodi:nodetypes="ccccccccccccccc"
         inkscape:connector-curvature="0"
         id="path3009"
         d="m 258.83061,930.96599 c 23.45136,24.69226 182.24087,21.07832 191.62142,1.42531 11.46511,-9.07063 8.84406,-39.90874 8.84406,-39.90874 l 2.94804,-399.08731 C 460.68069,443.00287 415.77574,413.96813 414.21232,382.22093 L 398.86164,172.70008 c 18.23996,-8.06277 4.25855,-35.44505 1.1317,-44.51566 10.94398,-16.12557 -0.96821,-17.60766 -3.57391,-20.12729 -32.83192,-3.02354 -48.19717,-2.51962 -84.15593,0.50393 0,0 -13.70231,11.17893 -0.15264,19.2417 3.12686,5.54317 -23.45136,35.17517 0.52115,45.25366 l -16.24031,211.5112 c -4.69028,35.7786 -42.08339,55.19249 -45.73138,101.55347 l 3.01125,419.18929 c 0,0 -0.0524,19.60851 5.15904,25.65561 z"
         style="fill:#20bdc1;fill-opacity:1;stroke:none" /></g><g
       style="fill:#20bdc1;fill-opacity:1"
       transform="matrix(0.18242706,0,0,-0.18242706,289.73726,696.25051)"
       inkscape:label="Layer 1"
       id="g3516"><path
         style="fill:#20bdc1;fill-opacity:1;stroke:none"
         d="m 258.83061,930.96599 c 23.45136,24.69226 182.24087,21.07832 191.62142,1.42531 11.46511,-9.07063 8.84406,-39.90874 8.84406,-39.90874 l 2.94804,-399.08731 C 460.68069,443.00287 415.77574,413.96813 414.21232,382.22093 L 398.86164,172.70008 c 18.23996,-8.06277 4.25855,-35.44505 1.1317,-44.51566 10.94398,-16.12557 -0.96821,-17.60766 -3.57391,-20.12729 -32.83192,-3.02354 -48.19717,-2.51962 -84.15593,0.50393 0,0 -13.70231,11.17893 -0.15264,19.2417 3.12686,5.54317 -23.45136,35.17517 0.52115,45.25366 l -16.24031,211.5112 c -4.69028,35.7786 -42.08339,55.19249 -45.73138,101.55347 l 3.01125,419.18929 c 0,0 -0.0524,19.60851 5.15904,25.65561 z"
         id="path3518"
         inkscape:connector-curvature="0"
         sodipodi:nodetypes="ccccccccccccccc" /></g><g
       id="g3520"
       inkscape:label="Layer 1"
       transform="matrix(0.18242706,0,0,-0.18242706,169.84588,696.25051)"
       style="fill:#20bdc1;fill-opacity:1"><path
         sodipodi:nodetypes="ccccccccccccccc"
         inkscape:connector-curvature="0"
         id="path3522"
         d="m 258.83061,930.96599 c 23.45136,24.69226 182.24087,21.07832 191.62142,1.42531 11.46511,-9.07063 8.84406,-39.90874 8.84406,-39.90874 l 2.94804,-399.08731 C 460.68069,443.00287 415.77574,413.96813 414.21232,382.22093 L 398.86164,172.70008 c 18.23996,-8.06277 4.25855,-35.44505 1.1317,-44.51566 10.94398,-16.12557 -0.96821,-17.60766 -3.57391,-20.12729 -32.83192,-3.02354 -48.19717,-2.51962 -84.15593,0.50393 0,0 -13.70231,11.17893 -0.15264,19.2417 3.12686,5.54317 -23.45136,35.17517 0.52115,45.25366 l -16.24031,211.5112 c -4.69028,35.7786 -42.08339,55.19249 -45.73138,101.55347 l 3.01125,419.18929 c 0,0 -0.0524,19.60851 5.15904,25.65561 z"
         style="fill:#20bdc1;fill-opacity:1;stroke:none" /></g><g
       style="fill:#20bdc1;fill-opacity:1"
       transform="matrix(0.09149969,0,0,-0.09149969,158.80743,616.96607)"
       inkscape:label="Layer 1"
       id="g3524"><path
         style="fill:#20bdc1;fill-opacity:1;stroke:none"
         d="m 258.83061,930.96599 c 23.45136,24.69226 182.24087,21.07832 191.62142,1.42531 11.46511,-9.07063 8.84406,-39.90874 8.84406,-39.90874 l 2.94804,-399.08731 C 460.68069,443.00287 415.77574,413.96813 414.21232,382.22093 L 398.86164,172.70008 c 18.23996,-8.06277 4.25855,-35.44505 1.1317,-44.51566 10.94398,-16.12557 -0.96821,-17.60766 -3.57391,-20.12729 -32.83192,-3.02354 -48.19717,-2.51962 -84.15593,0.50393 0,0 -13.70231,11.17893 -0.15264,19.2417 3.12686,5.54317 -23.45136,35.17517 0.52115,45.25366 l -16.24031,211.5112 c -4.69028,35.7786 -42.08339,55.19249 -45.73138,101.55347 l 3.01125,419.18929 c 0,0 -0.0524,19.60851 5.15904,25.65561 z"
         id="path3526"
         inkscape:connector-curvature="0"
         sodipodi:nodetypes="ccccccccccccccc" /></g><g
       id="g3528"
       inkscape:label="Layer 1"
       transform="matrix(0.10329591,0,0,-0.10329591,362.51663,625.17188)"
       style="fill:#20bdc1;fill-opacity:1"><path
         sodipodi:nodetypes="ccccccccccccccc"
         inkscape:connector-curvature="0"
         id="path3530"
         d="m 258.83061,930.96599 c 23.45136,24.69226 182.24087,21.07832 191.62142,1.42531 11.46511,-9.07063 8.84406,-39.90874 8.84406,-39.90874 l 2.94804,-399.08731 C 460.68069,443.00287 415.77574,413.96813 414.21232,382.22093 L 398.86164,172.70008 c 18.23996,-8.06277 4.25855,-35.44505 1.1317,-44.51566 10.94398,-16.12557 -0.96821,-17.60766 -3.57391,-20.12729 -32.83192,-3.02354 -48.19717,-2.51962 -84.15593,0.50393 0,0 -13.70231,11.17893 -0.15264,19.2417 3.12686,5.54317 -23.45136,35.17517 0.52115,45.25366 l -16.24031,211.5112 c -4.69028,35.7786 -42.08339,55.19249 -45.73138,101.55347 l 3.01125,419.18929 c 0,0 -0.0524,19.60851 5.15904,25.65561 z"
         style="fill:#20bdc1;fill-opacity:1;stroke:none" /></g><g
       style="fill:#20bdc1;fill-opacity:1"
       transform="matrix(0.05164047,0,0,-0.05164047,411.23372,580.44839)"
       inkscape:label="Layer 1"
       id="g3532"><path
         style="fill:#20bdc1;fill-opacity:1;stroke:none"
         d="m 258.83061,930.96599 c 23.45136,24.69226 182.24087,21.07832 191.62142,1.42531 11.46511,-9.07063 8.84406,-39.90874 8.84406,-39.90874 l 2.94804,-399.08731 C 460.68069,443.00287 415.77574,413.96813 414.21232,382.22093 L 398.86164,172.70008 c 18.23996,-8.06277 4.25855,-35.44505 1.1317,-44.51566 10.94398,-16.12557 -0.96821,-17.60766 -3.57391,-20.12729 -32.83192,-3.02354 -48.19717,-2.51962 -84.15593,0.50393 0,0 -13.70231,11.17893 -0.15264,19.2417 3.12686,5.54317 -23.45136,35.17517 0.52115,45.25366 l -16.24031,211.5112 c -4.69028,35.7786 -42.08339,55.19249 -45.73138,101.55347 l 3.01125,419.18929 c 0,0 -0.0524,19.60851 5.15904,25.65561 z"
         id="path3534"
         inkscape:connector-curvature="0"
         sodipodi:nodetypes="ccccccccccccccc" /></g><flowRoot
       xml:space="preserve"
       id="flowRoot3536"
       style="font-size:100px;font-style:normal;font-variant:normal;font-weight:bold;font-stretch:normal;line-height:125%;letter-spacing:0px;word-spacing:0px;fill:#20bdc1;fill-opacity:1;stroke:none;font-family:PT Sans;-inkscape-font-specification:PT Sans Bold"
       transform="matrix(0.96227184,0,0,-0.96227184,-36.597152,812.50862)"><flowRegion
         id="flowRegion3538"><rect
           id="rect3540"
           width="605.46686"
           height="221.69403"
           x="103.08462"
           y="313.74005"
           style="font-size:100px;font-style:normal;font-variant:normal;font-weight:bold;font-stretch:normal;fill:#20bdc1;fill-opacity:1;font-family:PT Sans;-inkscape-font-specification:PT Sans Bold" /></flowRegion><flowPara
         id="flowPara3542">CloudBeers</flowPara></flowRoot></g></svg>