<?xml version="1.0" encoding="UTF-8" standalone="no"?>
<!-- Created with Inkscape (http://www.inkscape.org/) -->

<svg
   xmlns:dc="http://purl.org/dc/elements/1.1/"
   xmlns:cc="http://creativecommons.org/ns#"
   xmlns:rdf="http://www.w3.org/1999/02/22-rdf-syntax-ns#"
   xmlns:svg="http://www.w3.org/2000/svg"
   xmlns="http://www.w3.org/2000/svg"
   xmlns:sodipodi="http://sodipodi.sourceforge.net/DTD/sodipodi-0.dtd"
   xmlns:inkscape="http://www.inkscape.org/namespaces/inkscape"
   width="350"
   height="100"
   id="svg2"
   version="1.1"
   inkscape:version="0.48.5 r10040"
   sodipodi:docname="cloudbeers-rebranding.svg"
   inkscape:export-filename="/Users/stephenc/Desktop/Later/cloudbeers-rebranding.png"
   inkscape:export-xdpi="180"
   inkscape:export-ydpi="180">
  <defs
     id="defs4" />
  <sodipodi:namedview
     id="base"
     pagecolor="#ffffff"
     bordercolor="#666666"
     borderopacity="1.0"
     inkscape:pageopacity="0.0"
     inkscape:pageshadow="2"
     inkscape:zoom="2.8057143"
     inkscape:cx="175"
     inkscape:cy="50"
     inkscape:document-units="px"
     inkscape:current-layer="layer1"
     showgrid="false"
     showguides="true"
     inkscape:guide-bbox="true"
     inkscape:window-width="1109"
     inkscape:window-height="1134"
     inkscape:window-x="0"
     inkscape:window-y="1"
     inkscape:window-maximized="0"
     fit-margin-top="10"
     fit-margin-left="10"
     fit-margin-right="10"
     fit-margin-bottom="10" />
  <metadata
     id="metadata7">
    <rdf:RDF>
      <cc:Work
         rdf:about="">
        <dc:format>image/svg+xml</dc:format>
        <dc:type
           rdf:resource="http://purl.org/dc/dcmitype/StillImage" />
        <dc:title />
      </cc:Work>
    </rdf:RDF>
  </metadata>
  <g
     inkscape:label="Layer 1"
     inkscape:groupmode="layer"
     id="layer1"
     transform="translate(-128.16769,-490.4582)">
    <path
       inkscape:connector-curvature="0"
       id="path3419"
       style="font-size:60px;font-style:normal;font-variant:normal;font-weight:bold;font-stretch:normal;text-align:start;line-height:125%;letter-spacing:0px;word-spacing:0px;writing-mode:lr-tb;text-anchor:start;fill:#335061;fill-opacity:1;stroke:#ffffff;font-family:Century Gothic;-inkscape-font-specification:Century Gothic Bold"
       d="m 367.51376,528.89428 -25.69336,0 c 0.37108,2.26564 1.35741,4.07228 2.95898,5.41992 1.62108,1.32814 3.68162,1.9922 6.18164,1.99219 2.98827,1e-5 5.55663,-1.04491 7.70509,-3.13476 l 6.73827,3.16406 c -1.67971,2.38282 -3.69144,4.15039 -6.03516,5.30273 -2.34377,1.13282 -5.12697,1.69922 -8.34961,1.69922 -5,0 -9.07227,-1.57226 -12.21679,-4.71679 -3.14454,-3.16406 -4.7168,-7.11913 -4.7168,-11.86524 0,-4.86326 1.5625,-8.89646 4.6875,-12.09961 3.14452,-3.22262 7.08007,-4.83395 11.80665,-4.83398 5.01951,3e-5 9.10154,1.61136 12.2461,4.83398 3.14449,3.20315 4.71676,7.44143 4.71679,12.71485 l -0.0293,1.52343 m -8.02735,-6.29883 c -0.52737,-1.77732 -1.57229,-3.22263 -3.13476,-4.33593 -1.543,-1.11326 -3.33987,-1.6699 -5.39063,-1.66992 -2.22658,2e-5 -4.1797,0.62502 -5.85937,1.875 -1.0547,0.78127 -2.03127,2.15822 -2.92969,4.13085 l 17.31445,0" />
    <path
       inkscape:connector-curvature="0"
       id="path3421"
       style="font-size:60px;font-style:normal;font-variant:normal;font-weight:bold;font-stretch:normal;text-align:start;line-height:125%;letter-spacing:0px;word-spacing:0px;writing-mode:lr-tb;text-anchor:start;fill:#335061;fill-opacity:1;stroke:#ffffff;font-family:Century Gothic;-inkscape-font-specification:Century Gothic Bold"
       d="m 405.95126,528.89428 -25.69336,0 c 0.37108,2.26564 1.35741,4.07228 2.95898,5.41992 1.62108,1.32814 3.68162,1.9922 6.18164,1.99219 2.98827,1e-5 5.55663,-1.04491 7.70509,-3.13476 l 6.73827,3.16406 c -1.67971,2.38282 -3.69144,4.15039 -6.03516,5.30273 -2.34377,1.13282 -5.12697,1.69922 -8.34961,1.69922 -5,0 -9.07227,-1.57226 -12.21679,-4.71679 -3.14454,-3.16406 -4.7168,-7.11913 -4.7168,-11.86524 0,-4.86326 1.5625,-8.89646 4.6875,-12.09961 3.14452,-3.22262 7.08007,-4.83395 11.80665,-4.83398 5.01951,3e-5 9.10154,1.61136 12.2461,4.83398 3.14449,3.20315 4.71676,7.44143 4.71679,12.71485 l -0.0293,1.52343 m -8.02735,-6.29883 c -0.52737,-1.77732 -1.57229,-3.22263 -3.13476,-4.33593 -1.543,-1.11326 -3.33987,-1.6699 -5.39063,-1.66992 -2.22658,2e-5 -4.1797,0.62502 -5.85937,1.875 -1.0547,0.78127 -2.03127,2.15822 -2.92969,4.13085 l 17.31445,0" />
    <path
       inkscape:connector-curvature="0"
       id="path3423"
       style="font-size:60px;font-style:normal;font-variant:normal;font-weight:bold;font-stretch:normal;text-align:start;line-height:125%;letter-spacing:0px;word-spacing:0px;writing-mode:lr-tb;text-anchor:start;fill:#335061;fill-opacity:1;stroke:#ffffff;font-family:Century Gothic;-inkscape-font-specification:Century Gothic Bold"
       d="m 410.58017,511.46264 6.85547,0 0,4.01367 c 0.74218,-1.582 1.72851,-2.78317 2.95898,-3.60351 1.23046,-0.82028 2.57812,-1.23044 4.04297,-1.23047 1.03514,3e-5 2.11913,0.27347 3.25196,0.82031 l -2.49024,6.88477 c -0.93751,-0.46873 -1.709,-0.7031 -2.31445,-0.70313 -1.23048,3e-5 -2.2754,0.76174 -3.13477,2.28516 -0.83985,1.52346 -1.25977,4.51173 -1.25976,8.96484 l 0.0293,1.55273 0,12.89063 -7.93945,0 0,-31.875" />
    <path
       inkscape:connector-curvature="0"
       id="path3425"
       style="font-size:60px;font-style:normal;font-variant:normal;font-weight:bold;font-stretch:normal;text-align:start;line-height:125%;letter-spacing:0px;word-spacing:0px;writing-mode:lr-tb;text-anchor:start;fill:#335061;fill-opacity:1;stroke:#ffffff;font-family:Century Gothic;-inkscape-font-specification:Century Gothic Bold"
       d="m 451.18563,515.09545 -4.95117,4.95118 c -2.01173,-1.99217 -3.83791,-2.98826 -5.47852,-2.98828 -0.89845,2e-5 -1.60156,0.19533 -2.10937,0.58593 -0.50782,0.37112 -0.76173,0.83987 -0.76172,1.40625 -10e-6,0.42971 0.15624,0.8301 0.46875,1.20117 0.33202,0.35159 1.1328,0.83987 2.40234,1.46485 l 2.92969,1.46484 c 3.08592,1.52346 5.20506,3.07619 6.35742,4.65821 1.15232,1.58204 1.72849,3.43751 1.72852,5.5664 -3e-5,2.83204 -1.04495,5.19532 -3.13477,7.08985 -2.07033,1.89453 -4.85353,2.84179 -8.34961,2.84179 -4.64844,0 -8.35938,-1.8164 -11.13281,-5.44922 l 4.92188,-5.36132 c 0.93749,1.09375 2.03124,1.98243 3.28125,2.66601 1.26952,0.66407 2.39256,0.9961 3.36914,0.99609 1.05467,10e-6 1.90428,-0.25389 2.54882,-0.76171 0.64452,-0.50781 0.96678,-1.09375 0.9668,-1.75782 -2e-5,-1.23045 -1.16212,-2.43163 -3.48633,-3.60351 l -2.69531,-1.34766 c -5.15625,-2.59764 -7.73438,-5.84959 -7.73437,-9.75586 -10e-6,-2.5195 0.96679,-4.66794 2.90039,-6.44531 1.95311,-1.79684 4.44335,-2.69528 7.4707,-2.69531 2.0703,3e-5 4.01365,0.45901 5.83008,1.37695 1.83591,0.89847 3.38865,2.1973 4.6582,3.89648" />
    <path
       inkscape:connector-curvature="0"
       id="path3427"
       style="font-size:10px;font-style:normal;font-variant:normal;font-weight:bold;font-stretch:normal;text-align:start;line-height:125%;letter-spacing:0px;word-spacing:0px;writing-mode:lr-tb;text-anchor:start;fill:#335061;fill-opacity:1;stroke:none;font-family:Century Gothic;-inkscape-font-specification:Century Gothic Bold"
       d="m 463.29989,539.48493 0,4.10157 -0.85938,0 0,-3.37403 -1.34276,3.37403 -0.42969,0 -1.29883,-3.37403 0,3.37403 -0.85937,0 0,-4.10157 1.30371,0 1.06934,2.63672 1.12304,-2.63672 1.29395,0 m -5.35156,0 0,0.71778 -1.2793,0 0,3.38379 -0.88867,0 0,-3.38379 -1.28907,0 0,-0.71778 3.45704,0" />
    <path
       inkscape:connector-curvature="0"
       id="path3406"
       style="font-size:60px;font-style:normal;font-variant:normal;font-weight:bold;font-stretch:normal;text-align:start;line-height:125%;letter-spacing:0px;word-spacing:0px;writing-mode:lr-tb;text-anchor:start;fill:#1997b5;fill-opacity:1;stroke:#ffffff;font-family:Century Gothic;-inkscape-font-specification:Century Gothic Bold"
       d="m 176.2894,553.37574 -6.65039,3.66211 c -1.25003,-1.30857 -2.49026,-2.21677 -3.7207,-2.72461 -1.21096,-0.50779 -2.63674,-0.76169 -4.27735,-0.76172 -2.98831,3e-5 -5.41017,0.89846 -7.26563,2.69531 -1.83595,1.77737 -2.75391,4.06252 -2.7539,6.85547 -1e-5,2.71486 0.88865,4.93165 2.66602,6.65039 1.77733,1.71876 4.11131,2.57814 7.00195,2.57813 3.57419,10e-6 6.3574,-1.2207 8.34961,-3.66211 l 6.29883,4.30664 c -3.418,4.4336 -8.24222,6.65039 -14.47266,6.65039 -5.60548,0 -10.00001,-1.66015 -13.18359,-4.98047 -3.16407,-3.3203 -4.7461,-7.20702 -4.7461,-11.66015 0,-3.08592 0.77149,-5.92772 2.31446,-8.52539 1.54296,-2.59763 3.69139,-4.63865 6.44531,-6.12305 2.77342,-1.48434 5.86912,-2.22653 9.28711,-2.22656 3.16404,3e-5 6.00583,0.63479 8.52539,1.90429 2.5195,1.25003 4.58004,3.03714 6.18164,5.36133" />
    <path
       inkscape:connector-curvature="0"
       id="path3408"
       style="font-size:60px;font-style:normal;font-variant:normal;font-weight:bold;font-stretch:normal;text-align:start;line-height:125%;letter-spacing:0px;word-spacing:0px;writing-mode:lr-tb;text-anchor:start;fill:#1997b5;fill-opacity:1;stroke:#ffffff;font-family:Century Gothic;-inkscape-font-specification:Century Gothic Bold"
       d="m 182.67611,535.44605 7.99806,0 0,44.17969 -7.99806,0 0,-44.17969" />
    <path
       inkscape:connector-curvature="0"
       id="path3410"
       style="font-size:60px;font-style:normal;font-variant:normal;font-weight:bold;font-stretch:normal;text-align:start;line-height:125%;letter-spacing:0px;word-spacing:0px;writing-mode:lr-tb;text-anchor:start;fill:#1997b5;fill-opacity:1;stroke:#ffffff;font-family:Century Gothic;-inkscape-font-specification:Century Gothic Bold"
       d="m 212.91048,546.11012 c 3.00779,3e-5 5.83006,0.75198 8.4668,2.25586 2.65622,1.50393 4.72653,3.54494 6.21094,6.12304 1.48434,2.57815 2.22653,5.36135 2.22656,8.34961 -3e-5,3.00783 -0.75199,5.82032 -2.25586,8.4375 -1.48441,2.61719 -3.51565,4.66797 -6.09375,6.15235 -2.57815,1.46484 -5.41994,2.19726 -8.52539,2.19726 -4.57033,0 -8.47657,-1.62109 -11.71875,-4.86328 -3.22266,-3.26171 -4.83399,-7.21679 -4.83398,-11.86523 -10e-6,-4.98045 1.82616,-9.13084 5.47851,-12.45118 3.20313,-2.89059 6.88475,-4.3359 11.04492,-4.33593 m 0.11719,7.52929 c -2.48048,3e-5 -4.55079,0.86917 -6.21094,2.60742 -1.64063,1.71878 -2.46094,3.9258 -2.46093,6.6211 -10e-6,2.77345 0.81053,5.01954 2.43164,6.73828 1.64061,1.71876 3.71092,2.57813 6.21093,2.57812 2.49998,10e-6 4.58006,-0.86913 6.24024,-2.60742 1.66013,-1.73827 2.49021,-3.97459 2.49023,-6.70898 -2e-5,-2.73436 -0.82034,-4.95115 -2.46093,-6.65039 -1.62112,-1.71873 -3.7012,-2.5781 -6.24024,-2.57813" />
    <path
       inkscape:connector-curvature="0"
       id="path3412"
       style="font-size:60px;font-style:normal;font-variant:normal;font-weight:bold;font-stretch:normal;text-align:start;line-height:125%;letter-spacing:0px;word-spacing:0px;writing-mode:lr-tb;text-anchor:start;fill:#1997b5;fill-opacity:1;stroke:#ffffff;font-family:Century Gothic;-inkscape-font-specification:Century Gothic Bold"
       d="m 236.34798,546.93043 8.08594,0 0,15.35156 c -1e-5,2.9883 0.20507,5.06837 0.61524,6.24024 0.41014,1.15235 1.06444,2.05078 1.96289,2.69531 0.91795,0.64454 2.041,0.9668 3.36914,0.96679 1.3281,10e-6 2.45115,-0.31249 3.36914,-0.9375 0.93748,-0.64452 1.63083,-1.58202 2.08008,-2.8125 0.332,-0.91795 0.49802,-2.88084 0.49804,-5.88867 l 0,-15.61523 8.02735,0 0,13.50586 c -4e-5,5.56642 -0.43949,9.37501 -1.31836,11.42578 -1.07425,2.5 -2.65628,4.42383 -4.7461,5.77148 -2.08986,1.32813 -4.74611,1.99219 -7.96875,1.99219 -3.4961,0 -6.32813,-0.78125 -8.49609,-2.34375 -2.14845,-1.5625 -3.66212,-3.74023 -4.54102,-6.5332 -0.625,-1.93359 -0.9375,-5.44921 -0.9375,-10.54688 l 0,-13.27148" />
    <g
       id="g3546"
       transform="translate(41.234882,62.34054)">
      <g
         style="fill:#335061;fill-opacity:1;stroke:#ffffff;stroke-width:0.82861477"
         transform="matrix(1.2174989,0,0,-1.1962614,-198.20825,1031.8254)"
         inkscape:label="Layer 1"
         id="g3525">
        <path
           style="fill:#335061;fill-opacity:1;stroke:#ffffff;stroke-width:0.82861477"
           d="m 372.00316,498.40366 c 0.73911,0.77822 5.74363,0.66432 6.03927,0.0449 0.36134,-0.28587 0.27874,-1.25779 0.27874,-1.25779 l 0.0929,-15.92165 c -0.0493,-1.58821 -1.46453,-2.50329 -1.5138,-3.50385 l -0.48381,-6.6034 c 0.57486,-0.25412 0.13422,-1.11712 0.0357,-1.40299 0.34492,-0.50822 -0.0305,-0.55494 -0.11264,-0.63434 -1.03475,-0.0953 -1.51901,-0.0794 -2.65231,0.0159 0,0 -0.43185,0.35232 -0.005,0.60643 0.0985,0.1747 -0.73911,1.10861 0.0164,1.42625 l -0.51184,6.66613 c -0.14782,1.12762 -1.32633,1.73948 -1.4413,3.20063 l 0.0949,16.5552 c 0,0 -0.002,0.618 0.16259,0.80858 z"
           id="path3527"
           inkscape:connector-curvature="0"
           sodipodi:nodetypes="cccccccccccccccc" />
      </g>
      <path
         d="m 262.66781,454.92257 6.37208,0 c 2.9883,3e-5 5.41017,0.89877 7.26562,2.69562 1.83595,1.77737 2.75392,4.06252 2.75391,6.85547 1e-5,2.71486 -0.88866,4.93165 -2.66602,6.65039 -1.77733,1.71876 -4.11131,2.57814 -7.00195,2.57813 -3.5742,10e-6 -6.3574,-1.2207 -8.34961,-3.66211 l -6.29883,4.30664 c 3.418,4.4336 8.24222,6.65039 14.47266,6.65039 5.60548,0 10.00001,-1.66015 13.18359,-4.98047 3.16407,-3.3203 4.7461,-7.20702 4.7461,-11.66015 0,-3.08592 -0.77149,-5.92772 -2.31446,-8.52539 -1.54296,-2.59763 -3.69139,-4.63865 -6.44531,-6.12305 -2.77342,-1.48434 -5.86912,-2.22644 -9.28711,-2.22647 l -6.53671,0"
         style="font-size:60px;font-style:normal;font-variant:normal;font-weight:bold;font-stretch:normal;text-align:start;line-height:125%;letter-spacing:0px;word-spacing:0px;writing-mode:lr-tb;text-anchor:start;fill:#335061;fill-opacity:1;stroke:#ffffff;font-family:Century Gothic;-inkscape-font-specification:Century Gothic Bold"
         id="path3529"
         inkscape:connector-curvature="0"
         sodipodi:nodetypes="cccscsccscssccc" />
      <path
         sodipodi:type="arc"
         style="fill:#335061;fill-opacity:1;stroke:#ffffff;stroke-width:1;stroke-linecap:butt;stroke-linejoin:round;stroke-miterlimit:4;stroke-opacity:1;stroke-dasharray:none;stroke-dashoffset:0"
         id="path3531"
         sodipodi:cx="228.58453"
         sodipodi:cy="455.21094"
         sodipodi:rx="2.3860598"
         sodipodi:ry="2.4390833"
         d="m 230.97059,455.21094 c 0,1.34707 -1.06827,2.43908 -2.38606,2.43908 -1.31778,0 -2.38606,-1.09201 -2.38606,-2.43908 0,-1.34707 1.06828,-2.43909 2.38606,-2.43909 1.31779,0 2.38606,1.09202 2.38606,2.43909 z"
         transform="matrix(-1,0,0,1,499.54216,6.6809677)" />
      <path
         inkscape:connector-curvature="0"
         id="path3533"
         d="m 266.59375,462.09375 -5.71875,3.625 -0.46875,0.28125 0.34375,0.4375 2.4375,3.09375 0.78125,-0.625 -2.09375,-2.65625 5.28125,-3.3125 -0.5625,-0.84375 z"
         style="font-size:medium;font-style:normal;font-variant:normal;font-weight:normal;font-stretch:normal;text-indent:0;text-align:start;text-decoration:none;line-height:normal;letter-spacing:normal;word-spacing:normal;text-transform:none;direction:ltr;block-progression:tb;writing-mode:lr-tb;text-anchor:start;baseline-shift:baseline;color:#000000;fill:#335061;fill-opacity:1;stroke:none;stroke-width:1px;marker:none;visibility:visible;display:inline;overflow:visible;enable-background:accumulate;font-family:Sans;-inkscape-font-specification:Sans" />
    </g>
    <g
       id="g3539"
       transform="translate(51.336851,76.995027)">
      <g
         id="g3515"
         inkscape:label="Layer 1"
         transform="matrix(-1.2174989,0,0,-1.1962614,704.21928,1053.459)"
         style="fill:#1997b5;fill-opacity:1;stroke:#ffffff;stroke-width:0.82861477">
        <path
           sodipodi:nodetypes="cccccccccccccccc"
           inkscape:connector-curvature="0"
           id="path3517"
           d="m 372.00316,498.40366 c 0.73911,0.77822 5.74363,0.66432 6.03927,0.0449 0.36134,-0.28587 0.27874,-1.25779 0.27874,-1.25779 l 0.0929,-15.92165 c -0.0493,-1.58821 -1.46453,-2.50329 -1.5138,-3.50385 l -0.48381,-6.6034 c 0.57486,-0.25412 0.13422,-1.11712 0.0357,-1.40299 0.34492,-0.50822 -0.0305,-0.55494 -0.11264,-0.63434 -1.03475,-0.0953 -1.51901,-0.0794 -2.65231,0.0159 0,0 -0.43185,0.35232 -0.005,0.60643 0.0985,0.1747 -0.73911,1.10861 0.0164,1.42625 l -0.51184,6.66613 c -0.14782,1.12762 -1.32633,1.73948 -1.4413,3.20063 l 0.0949,16.5552 c 0,0 -0.002,0.618 0.16259,0.80858 z"
           style="fill:#1997b5;fill-opacity:1;stroke:#ffffff;stroke-width:0.82861477" />
      </g>
      <path
         sodipodi:nodetypes="cccscsccscssccc"
         inkscape:connector-curvature="0"
         id="path3519"
         style="font-size:60px;font-style:normal;font-variant:normal;font-weight:bold;font-stretch:normal;text-align:start;line-height:125%;letter-spacing:0px;word-spacing:0px;writing-mode:lr-tb;text-anchor:start;fill:#1997b5;fill-opacity:1;stroke:#ffffff;font-family:Century Gothic;-inkscape-font-specification:Century Gothic Bold"
         d="m 243.34322,476.55618 -6.37208,0 c -2.9883,3e-5 -5.41017,0.89877 -7.26562,2.69562 -1.83595,1.77737 -2.75392,4.06252 -2.75391,6.85547 -10e-6,2.71486 0.88866,4.93165 2.66602,6.65039 1.77733,1.71876 4.11131,2.57814 7.00195,2.57813 3.5742,1e-5 6.3574,-1.2207 8.34961,-3.66211 l 6.29883,4.30664 c -3.418,4.4336 -8.24222,6.65039 -14.47266,6.65039 -5.60548,0 -10.00001,-1.66015 -13.18359,-4.98047 -3.16407,-3.3203 -4.7461,-7.20702 -4.7461,-11.66015 0,-3.08592 0.77149,-5.92772 2.31446,-8.52539 1.54296,-2.59763 3.69139,-4.63865 6.44531,-6.12305 2.77342,-1.48434 5.86912,-2.22644 9.28711,-2.22647 l 6.53671,0" />
      <path
         transform="translate(6.4688733,28.314577)"
         d="m 230.97059,455.21094 c 0,1.34707 -1.06827,2.43908 -2.38606,2.43908 -1.31778,0 -2.38606,-1.09201 -2.38606,-2.43908 0,-1.34707 1.06828,-2.43909 2.38606,-2.43909 1.31779,0 2.38606,1.09202 2.38606,2.43909 z"
         sodipodi:ry="2.4390833"
         sodipodi:rx="2.3860598"
         sodipodi:cy="455.21094"
         sodipodi:cx="228.58453"
         id="path3521"
         style="fill:#1997b5;fill-opacity:1;stroke:#ffffff;stroke-width:1;stroke-linecap:butt;stroke-linejoin:round;stroke-miterlimit:4;stroke-opacity:1;stroke-dasharray:none;stroke-dashoffset:0"
         sodipodi:type="arc" />
      <path
         inkscape:connector-curvature="0"
         id="path3523"
         d="m 239.40625,483.75 -0.53125,0.84375 5.25,3.3125 -2.09375,2.625 0.78125,0.625 2.4375,-3.09375 0.34375,-0.40625 -0.46875,-0.3125 -5.71875,-3.59375 z"
         style="font-size:medium;font-style:normal;font-variant:normal;font-weight:normal;font-stretch:normal;text-indent:0;text-align:start;text-decoration:none;line-height:normal;letter-spacing:normal;word-spacing:normal;text-transform:none;direction:ltr;block-progression:tb;writing-mode:lr-tb;text-anchor:start;baseline-shift:baseline;color:#000000;fill:#1997b5;fill-opacity:1;stroke:none;stroke-width:1px;marker:none;visibility:visible;display:inline;overflow:visible;enable-background:accumulate;font-family:Sans;-inkscape-font-specification:Sans" />
    </g>
  </g>
</svg>
