<?xml version="1.0" encoding="UTF-8" standalone="no"?>
<!-- Created with Inkscape (http://www.inkscape.org/) -->

<svg
   xmlns:dc="http://purl.org/dc/elements/1.1/"
   xmlns:cc="http://creativecommons.org/ns#"
   xmlns:rdf="http://www.w3.org/1999/02/22-rdf-syntax-ns#"
   xmlns:svg="http://www.w3.org/2000/svg"
   xmlns="http://www.w3.org/2000/svg"
   xmlns:sodipodi="http://sodipodi.sourceforge.net/DTD/sodipodi-0.dtd"
   xmlns:inkscape="http://www.inkscape.org/namespaces/inkscape"
   width="100"
   height="100"
   id="svg2"
   version="1.1"
   inkscape:version="0.48.5 r10040"
   sodipodi:docname="cloudbeers-rebranding-icon.svg"
   inkscape:export-filename="/Users/stephenc/Desktop/Later/cloudbeers-rebranding-icon.png"
   inkscape:export-xdpi="180"
   inkscape:export-ydpi="180">
  <defs
     id="defs4" />
  <sodipodi:namedview
     id="base"
     pagecolor="#ffffff"
     bordercolor="#666666"
     borderopacity="1.0"
     inkscape:pageopacity="0.0"
     inkscape:pageshadow="2"
     inkscape:zoom="2.8057143"
     inkscape:cx="178.49287"
     inkscape:cy="46.614053"
     inkscape:document-units="px"
     inkscape:current-layer="layer1"
     showgrid="false"
     showguides="true"
     inkscape:guide-bbox="true"
     inkscape:window-width="1109"
     inkscape:window-height="1134"
     inkscape:window-x="0"
     inkscape:window-y="1"
     inkscape:window-maximized="0"
     fit-margin-top="10"
     fit-margin-left="10"
     fit-margin-right="10"
     fit-margin-bottom="10"
     height="1052.36px" />
  <metadata
     id="metadata7">
    <rdf:RDF>
      <cc:Work
         rdf:about="">
        <dc:format>image/svg+xml</dc:format>
        <dc:type
           rdf:resource="http://purl.org/dc/dcmitype/StillImage" />
        <dc:title></dc:title>
      </cc:Work>
    </rdf:RDF>
  </metadata>
  <g
     inkscape:label="Layer 1"
     inkscape:groupmode="layer"
     id="layer1"
     transform="translate(-128.16769,-490.45816)">
    <g
       id="g3003"
       transform="translate(-121.12369,1.9999594)">
      <g
         transform="translate(41.234882,62.34054)"
         id="g3546">
        <g
           id="g3525"
           inkscape:label="Layer 1"
           transform="matrix(1.2174989,0,0,-1.1962614,-198.20825,1031.8254)"
           style="fill:#335061;fill-opacity:1;stroke:#ffffff;stroke-width:0.82861477">
          <path
             sodipodi:nodetypes="cccccccccccccccc"
             inkscape:connector-curvature="0"
             id="path3527"
             d="m 372.00316,498.40366 c 0.73911,0.77822 5.74363,0.66432 6.03927,0.0449 0.36134,-0.28587 0.27874,-1.25779 0.27874,-1.25779 l 0.0929,-15.92165 c -0.0493,-1.58821 -1.46453,-2.50329 -1.5138,-3.50385 l -0.48381,-6.6034 c 0.57486,-0.25412 0.13422,-1.11712 0.0357,-1.40299 0.34492,-0.50822 -0.0305,-0.55494 -0.11264,-0.63434 -1.03475,-0.0953 -1.51901,-0.0794 -2.65231,0.0159 0,0 -0.43185,0.35232 -0.005,0.60643 0.0985,0.1747 -0.73911,1.10861 0.0164,1.42625 l -0.51184,6.66613 c -0.14782,1.12762 -1.32633,1.73948 -1.4413,3.20063 l 0.0949,16.5552 c 0,0 -0.002,0.618 0.16259,0.80858 z"
             style="fill:#335061;fill-opacity:1;stroke:#ffffff;stroke-width:0.82861477" />
        </g>
        <path
           sodipodi:nodetypes="cccscsccscssccc"
           inkscape:connector-curvature="0"
           id="path3529"
           style="font-size:60px;font-style:normal;font-variant:normal;font-weight:bold;font-stretch:normal;text-align:start;line-height:125%;letter-spacing:0px;word-spacing:0px;writing-mode:lr-tb;text-anchor:start;fill:#335061;fill-opacity:1;stroke:#ffffff;font-family:Century Gothic;-inkscape-font-specification:Century Gothic Bold"
           d="m 262.66781,454.92257 6.37208,0 c 2.9883,3e-5 5.41017,0.89877 7.26562,2.69562 1.83595,1.77737 2.75392,4.06252 2.75391,6.85547 1e-5,2.71486 -0.88866,4.93165 -2.66602,6.65039 -1.77733,1.71876 -4.11131,2.57814 -7.00195,2.57813 -3.5742,10e-6 -6.3574,-1.2207 -8.34961,-3.66211 l -6.29883,4.30664 c 3.418,4.4336 8.24222,6.65039 14.47266,6.65039 5.60548,0 10.00001,-1.66015 13.18359,-4.98047 3.16407,-3.3203 4.7461,-7.20702 4.7461,-11.66015 0,-3.08592 -0.77149,-5.92772 -2.31446,-8.52539 -1.54296,-2.59763 -3.69139,-4.63865 -6.44531,-6.12305 -2.77342,-1.48434 -5.86912,-2.22644 -9.28711,-2.22647 l -6.53671,0" />
        <path
           transform="matrix(-1,0,0,1,499.54216,6.6809677)"
           d="m 230.97059,455.21094 c 0,1.34707 -1.06827,2.43908 -2.38606,2.43908 -1.31778,0 -2.38606,-1.09201 -2.38606,-2.43908 0,-1.34707 1.06828,-2.43909 2.38606,-2.43909 1.31779,0 2.38606,1.09202 2.38606,2.43909 z"
           sodipodi:ry="2.4390833"
           sodipodi:rx="2.3860598"
           sodipodi:cy="455.21094"
           sodipodi:cx="228.58453"
           id="path3531"
           style="fill:#335061;fill-opacity:1;stroke:#ffffff;stroke-width:1;stroke-linecap:butt;stroke-linejoin:round;stroke-miterlimit:4;stroke-opacity:1;stroke-dasharray:none;stroke-dashoffset:0"
           sodipodi:type="arc" />
        <path
           style="font-size:medium;font-style:normal;font-variant:normal;font-weight:normal;font-stretch:normal;text-indent:0;text-align:start;text-decoration:none;line-height:normal;letter-spacing:normal;word-spacing:normal;text-transform:none;direction:ltr;block-progression:tb;writing-mode:lr-tb;text-anchor:start;baseline-shift:baseline;color:#000000;fill:#335061;fill-opacity:1;stroke:none;stroke-width:1px;marker:none;visibility:visible;display:inline;overflow:visible;enable-background:accumulate;font-family:Sans;-inkscape-font-specification:Sans"
           d="m 266.59375,462.09375 -5.71875,3.625 -0.46875,0.28125 0.34375,0.4375 2.4375,3.09375 0.78125,-0.625 -2.09375,-2.65625 5.28125,-3.3125 -0.5625,-0.84375 z"
           id="path3533"
           inkscape:connector-curvature="0" />
      </g>
      <g
         transform="translate(51.336851,76.995027)"
         id="g3539">
        <g
           style="fill:#1997b5;fill-opacity:1;stroke:#ffffff;stroke-width:0.82861477"
           transform="matrix(-1.2174989,0,0,-1.1962614,704.21928,1053.459)"
           inkscape:label="Layer 1"
           id="g3515">
          <path
             style="fill:#1997b5;fill-opacity:1;stroke:#ffffff;stroke-width:0.82861477"
             d="m 372.00316,498.40366 c 0.73911,0.77822 5.74363,0.66432 6.03927,0.0449 0.36134,-0.28587 0.27874,-1.25779 0.27874,-1.25779 l 0.0929,-15.92165 c -0.0493,-1.58821 -1.46453,-2.50329 -1.5138,-3.50385 l -0.48381,-6.6034 c 0.57486,-0.25412 0.13422,-1.11712 0.0357,-1.40299 0.34492,-0.50822 -0.0305,-0.55494 -0.11264,-0.63434 -1.03475,-0.0953 -1.51901,-0.0794 -2.65231,0.0159 0,0 -0.43185,0.35232 -0.005,0.60643 0.0985,0.1747 -0.73911,1.10861 0.0164,1.42625 l -0.51184,6.66613 c -0.14782,1.12762 -1.32633,1.73948 -1.4413,3.20063 l 0.0949,16.5552 c 0,0 -0.002,0.618 0.16259,0.80858 z"
             id="path3517"
             inkscape:connector-curvature="0"
             sodipodi:nodetypes="cccccccccccccccc" />
        </g>
        <path
           d="m 243.34322,476.55618 -6.37208,0 c -2.9883,3e-5 -5.41017,0.89877 -7.26562,2.69562 -1.83595,1.77737 -2.75392,4.06252 -2.75391,6.85547 -10e-6,2.71486 0.88866,4.93165 2.66602,6.65039 1.77733,1.71876 4.11131,2.57814 7.00195,2.57813 3.5742,1e-5 6.3574,-1.2207 8.34961,-3.66211 l 6.29883,4.30664 c -3.418,4.4336 -8.24222,6.65039 -14.47266,6.65039 -5.60548,0 -10.00001,-1.66015 -13.18359,-4.98047 -3.16407,-3.3203 -4.7461,-7.20702 -4.7461,-11.66015 0,-3.08592 0.77149,-5.92772 2.31446,-8.52539 1.54296,-2.59763 3.69139,-4.63865 6.44531,-6.12305 2.77342,-1.48434 5.86912,-2.22644 9.28711,-2.22647 l 6.53671,0"
           style="font-size:60px;font-style:normal;font-variant:normal;font-weight:bold;font-stretch:normal;text-align:start;line-height:125%;letter-spacing:0px;word-spacing:0px;writing-mode:lr-tb;text-anchor:start;fill:#1997b5;fill-opacity:1;stroke:#ffffff;font-family:Century Gothic;-inkscape-font-specification:Century Gothic Bold"
           id="path3519"
           inkscape:connector-curvature="0"
           sodipodi:nodetypes="cccscsccscssccc" />
        <path
           sodipodi:type="arc"
           style="fill:#1997b5;fill-opacity:1;stroke:#ffffff;stroke-width:1;stroke-linecap:butt;stroke-linejoin:round;stroke-miterlimit:4;stroke-opacity:1;stroke-dasharray:none;stroke-dashoffset:0"
           id="path3521"
           sodipodi:cx="228.58453"
           sodipodi:cy="455.21094"
           sodipodi:rx="2.3860598"
           sodipodi:ry="2.4390833"
           d="m 230.97059,455.21094 c 0,1.34707 -1.06827,2.43908 -2.38606,2.43908 -1.31778,0 -2.38606,-1.09201 -2.38606,-2.43908 0,-1.34707 1.06828,-2.43909 2.38606,-2.43909 1.31779,0 2.38606,1.09202 2.38606,2.43909 z"
           transform="translate(6.4688733,28.314577)" />
        <path
           style="font-size:medium;font-style:normal;font-variant:normal;font-weight:normal;font-stretch:normal;text-indent:0;text-align:start;text-decoration:none;line-height:normal;letter-spacing:normal;word-spacing:normal;text-transform:none;direction:ltr;block-progression:tb;writing-mode:lr-tb;text-anchor:start;baseline-shift:baseline;color:#000000;fill:#1997b5;fill-opacity:1;stroke:none;stroke-width:1px;marker:none;visibility:visible;display:inline;overflow:visible;enable-background:accumulate;font-family:Sans;-inkscape-font-specification:Sans"
           d="m 239.40625,483.75 -0.53125,0.84375 5.25,3.3125 -2.09375,2.625 0.78125,0.625 2.4375,-3.09375 0.34375,-0.40625 -0.46875,-0.3125 -5.71875,-3.59375 z"
           id="path3523"
           inkscape:connector-curvature="0" />
      </g>
    </g>
  </g>
</svg>
